<svg xmlns="http://www.w3.org/2000/svg" viewBox="0 0 48 48" fill="none">
  <!-- Shield body -->
  <path d="M24 4L6 11v10c0 11.1 7.68 21.47 18 24 10.32-2.53 18-12.9 18-24V11L24 4z" fill="#1e40af"/>
  <path d="M24 4L6 11v10c0 11.1 7.68 21.47 18 24 10.32-2.53 18-12.9 18-24V11L24 4z" fill="url(#grad)" opacity="0.5"/>
  <!-- Inner shield highlight -->
  <path d="M24 8l-14 5.4v7.8c0 8.66 5.98 16.73 14 18.7 8.02-1.97 14-10.04 14-18.7v-7.8L24 8z" fill="#2563eb" opacity="0.3"/>
  <!-- Checkmark -->
  <path d="M16 24l5.5 5.5L32 18" stroke="white" stroke-width="3.5" stroke-linecap="round" stroke-linejoin="round"/>
  <!-- Pencil accent -->
  <path d="M34 10l-2.5 2.5" stroke="#93c5fd" stroke-width="1.5" stroke-linecap="round"/>
  <circle cx="35" cy="9" r="1.5" fill="#93c5fd"/>
  <defs>
    <linearGradient id="grad" x1="6" y1="4" x2="42" y2="45" gradientUnits="userSpaceOnUse">
      <stop stop-color="#3b82f6"/>
      <stop offset="1" stop-color="#1e3a5f"/>
    </linearGradient>
  </defs>
</svg>
